<svg width="20" height="20" viewBox="0 0 20 20" fill="none" xmlns="http://www.w3.org/2000/svg">
<path d="M1.32812 10L2.35156 11.0234C6.57031 15.2422 13.4336 15.2422 17.6523 11.0234L18.6719 10L17.6484 8.97656C13.4297 4.75781 6.56641 4.75781 2.34766 8.97656L1.32812 10ZM10 14.9297C7.03906 14.9297 4.07812 13.8008 1.82422 11.5469L0.539062 10.2617C0.394531 10.1172 0.394531 9.88281 0.539062 9.73438L1.82422 8.44922C6.33203 3.94141 13.668 3.94141 18.1758 8.44922L19.4609 9.73438C19.6055 9.87891 19.6055 10.1133 19.4609 10.2617L18.1758 11.5469C15.9219 13.8008 12.9609 14.9297 10 14.9297Z" fill="#231F20"/>
<path d="M10 7.16797C8.4375 7.16797 7.16797 8.4375 7.16797 10C7.16797 11.5625 8.4375 12.832 10 12.832C11.5625 12.832 12.832 11.5625 12.832 10C12.832 8.4375 11.5625 7.16797 10 7.16797ZM10 13.5742C8.02734 13.5742 6.42578 11.9688 6.42578 10C6.42578 8.02734 8.03125 6.42578 10 6.42578C11.9688 6.42578 13.5742 8.03125 13.5742 10C13.5742 11.9727 11.9727 13.5742 10 13.5742Z" fill="#231F20"/>
</svg>
