<svg width="27" height="28" viewBox="0 0 27 28" fill="none" xmlns="http://www.w3.org/2000/svg">
<path d="M0 6.91292V21.0871C0 23.0402 1.53641 24.6335 3.41974 24.6335H14.4664C16.3498 24.6335 17.8862 23.0402 17.8862 21.0871V18.7914C17.8862 18.403 17.5833 18.0889 17.2089 18.0889C16.8344 18.0889 16.5315 18.403 16.5315 18.7914V21.0871C16.5315 22.2692 15.6009 23.2344 14.4609 23.2344H3.41974C2.27983 23.2344 1.34917 22.2692 1.34917 21.0871V6.91292C1.34917 5.73078 2.27983 4.76566 3.41974 4.76566H14.4664C15.6064 4.76566 16.537 5.73078 16.537 6.91292V9.20865C16.537 9.59699 16.8399 9.91108 17.2144 9.91108C17.5888 9.91108 17.8917 9.59699 17.8917 9.20865V6.91292C17.8917 4.95983 16.3553 3.36652 14.472 3.36652H3.41974C1.53641 3.36652 0 4.95412 0 6.91292Z" fill="#333333"/>
<path d="M21.2233 19.2825C21.3555 19.4195 21.5262 19.4881 21.7024 19.4881C21.8786 19.4881 22.0494 19.4195 22.1815 19.2825L26.8018 14.4911C27.0661 14.217 27.0661 13.7773 26.8018 13.5032L22.1815 8.71181C21.9172 8.4377 21.4932 8.4377 21.2288 8.71181C20.9645 8.98593 20.9645 9.42566 21.2288 9.69978L24.6981 13.2976H12.0379C11.6635 13.2976 11.3606 13.6117 11.3606 14C11.3606 14.3883 11.6635 14.7024 12.0379 14.7024H24.6926L21.2233 18.3002C20.959 18.5686 20.959 19.0141 21.2233 19.2825Z" fill="#333333"/>
</svg>
