<svg width="30" height="30" viewBox="0 0 30 30" fill="none" xmlns="http://www.w3.org/2000/svg">
<path d="M15.625 22.5C11.828 22.5 8.75 19.422 8.75 15.625C8.75 11.828 11.828 8.75 15.625 8.75C19.422 8.75 22.5 11.828 22.5 15.625C22.5 19.422 19.422 22.5 15.625 22.5ZM15.625 21.25C18.7316 21.25 21.25 18.7316 21.25 15.625C21.25 12.5184 18.7316 10 15.625 10C12.5184 10 10 12.5184 10 15.625C10 18.7316 12.5184 21.25 15.625 21.25ZM16.25 6.875C16.25 7.22017 15.9701 7.5 15.625 7.5C15.2799 7.5 15 7.22017 15 6.875V3.125C15 2.77983 15.2799 2.5 15.625 2.5C15.9701 2.5 16.25 2.77983 16.25 3.125V6.875ZM16.25 28.125C16.25 28.4701 15.9701 28.75 15.625 28.75C15.2799 28.75 15 28.4701 15 28.125V24.375C15 24.0299 15.2799 23.75 15.625 23.75C15.9701 23.75 16.25 24.0299 16.25 24.375V28.125ZM22.2541 9.87976C22.01 10.1238 21.6144 10.1238 21.3703 9.87976C21.1261 9.63567 21.1261 9.23995 21.3703 8.99588L23.933 6.43306C24.1771 6.18898 24.5729 6.18898 24.817 6.43306C25.061 6.67714 25.061 7.07286 24.817 7.31694L22.2541 9.87976ZM7.31694 24.817C7.07286 25.061 6.67714 25.061 6.43306 24.817C6.18898 24.5729 6.18898 24.1771 6.43306 23.933L8.99588 21.3703C9.23995 21.1261 9.63567 21.1261 9.87976 21.3703C10.1238 21.6144 10.1238 22.01 9.87976 22.2541L7.31694 24.817ZM24.375 16.25C24.0299 16.25 23.75 15.9701 23.75 15.625C23.75 15.2799 24.0299 15 24.375 15H28.125C28.4701 15 28.75 15.2799 28.75 15.625C28.75 15.9701 28.4701 16.25 28.125 16.25H24.375ZM3.125 16.25C2.77983 16.25 2.5 15.9701 2.5 15.625C2.5 15.2799 2.77983 15 3.125 15H6.875C7.22017 15 7.5 15.2799 7.5 15.625C7.5 15.9701 7.22017 16.25 6.875 16.25H3.125ZM21.3703 22.2541C21.1261 22.01 21.1261 21.6144 21.3703 21.3703C21.6144 21.1261 22.01 21.1261 22.2541 21.3703L24.817 23.933C25.061 24.1771 25.061 24.5729 24.817 24.817C24.5729 25.061 24.1771 25.061 23.933 24.817L21.3703 22.2541ZM6.43306 7.31694C6.18898 7.07286 6.18898 6.67714 6.43306 6.43306C6.67714 6.18898 7.07286 6.18898 7.31694 6.43306L9.87976 8.99588C10.1238 9.23995 10.1238 9.63567 9.87976 9.87976C9.63567 10.1238 9.23995 10.1238 8.99588 9.87976L6.43306 7.31694Z" fill="#333333"/>
</svg>
