<svg width="26" height="26" viewBox="0 0 26 26" fill="none" xmlns="http://www.w3.org/2000/svg">
<circle cx="13" cy="13" r="12" stroke="#333333" stroke-width="2"/>
<g clip-path="url(#clip0_13_3)">
<path d="M17.8462 17.229L16.9277 17.772C16.3365 18.1367 13.8168 18.5467 10.3888 14.8273C7.08411 11.2463 8.02908 9.26052 8.47235 8.80257L9.23508 8.09251C9.41491 7.95516 9.68623 7.97131 9.84082 8.13723L11.8468 10.2625L11.848 10.2636C11.9948 10.4194 11.99 10.6618 11.7969 10.8078V10.8094L10.9079 11.3837C10.556 11.6962 10.8628 12.188 11.2225 12.6632L12.9332 14.4723C13.729 15.1602 14.1651 15.4781 14.5458 15.2507L15.2851 14.5121C15.4662 14.3758 15.7362 14.3925 15.8908 14.5574L17.8981 16.6827V16.6838C18.0441 16.84 18.0387 17.0819 17.8462 17.229Z" fill="#333333"/>
</g>
<defs>
<clipPath id="clip0_13_3">
<rect width="10" height="10" fill="white" transform="translate(8 8)"/>
</clipPath>
</defs>
</svg>
