<svg width="26" height="26" viewBox="0 0 26 26" fill="none" xmlns="http://www.w3.org/2000/svg">
<circle cx="13" cy="13" r="12" transform="matrix(-1 0 0 1 26 0)" stroke="#333333" stroke-width="2"/>
<path d="M13.6728 14.48H11.8328C11.8328 14.0533 11.9288 13.6533 12.1208 13.28C12.3128 12.896 12.5475 12.5707 12.8248 12.304C13.1021 12.0267 13.3795 11.7653 13.6568 11.52C13.9341 11.264 14.1688 10.9867 14.3608 10.688C14.5528 10.3893 14.6488 10.0853 14.6488 9.776C14.6488 9.33867 14.4941 8.99733 14.1848 8.752C13.8755 8.50667 13.4595 8.384 12.9368 8.384C12.4355 8.384 12.0035 8.512 11.6408 8.768C11.2781 9.024 11.0168 9.38667 10.8568 9.856L9.27281 8.96C9.56081 8.21333 10.0355 7.632 10.6968 7.216C11.3688 6.8 12.1315 6.592 12.9848 6.592C13.9448 6.592 14.7661 6.864 15.4488 7.408C16.1421 7.952 16.4888 8.704 16.4888 9.664C16.4888 10.1013 16.3928 10.5173 16.2008 10.912C16.0088 11.3067 15.7741 11.6427 15.4968 11.92C15.2195 12.1973 14.9421 12.4693 14.6648 12.736C14.3875 12.992 14.1528 13.2693 13.9608 13.568C13.7688 13.8667 13.6728 14.1707 13.6728 14.48ZM12.7608 15.792C13.0915 15.792 13.3741 15.9093 13.6088 16.144C13.8435 16.3787 13.9608 16.6613 13.9608 16.992C13.9608 17.3227 13.8435 17.6053 13.6088 17.84C13.3741 18.0747 13.0915 18.192 12.7608 18.192C12.4301 18.192 12.1475 18.0747 11.9128 17.84C11.6781 17.6053 11.5608 17.3227 11.5608 16.992C11.5608 16.6613 11.6728 16.3787 11.8968 16.144C12.1315 15.9093 12.4195 15.792 12.7608 15.792Z" fill="#333333"/>
</svg>
