<svg width="26" height="26" viewBox="0 0 26 26" fill="none" xmlns="http://www.w3.org/2000/svg">
<g clip-path="url(#clip0_10_144)">
<path d="M24.6692 10.2707L22.8442 9.96114C22.6541 9.3474 22.4097 8.75538 22.111 8.19053L23.1864 6.68604C23.6426 6.04515 23.572 5.1707 23.0126 4.6167L21.3941 2.99816C21.0899 2.69401 20.688 2.52564 20.2589 2.52564C19.9222 2.52564 19.6017 2.62883 19.3301 2.82436L17.8202 3.89977C17.2337 3.59018 16.6199 3.33491 15.9844 3.14481L15.6803 1.3416C15.5499 0.564921 14.8819 6.10352e-05 14.0943 6.10352e-05H11.8077C11.0202 6.10352e-05 10.3521 0.564921 10.2218 1.3416L9.90677 3.18826C9.29846 3.37836 8.70644 3.6282 8.14158 3.93235L6.64796 2.85695C6.3764 2.66142 6.05052 2.55822 5.71377 2.55822C5.2847 2.55822 4.87735 2.72659 4.57862 3.03075L2.95465 4.64929C2.40065 5.20329 2.32461 6.07773 2.78085 6.71863L3.86712 8.24484C3.56839 8.81513 3.32941 9.40715 3.14475 10.0209L1.34154 10.325C0.56486 10.4554 0 11.1235 0 11.911V14.1976C0 14.9851 0.56486 15.6532 1.34154 15.7835L3.1882 16.0986C3.3783 16.7069 3.62814 17.2989 3.93229 17.8637L2.86232 19.3519C2.40609 19.9928 2.47669 20.8673 3.03612 21.4213L4.65466 23.0398C4.95882 23.344 5.36074 23.5123 5.78981 23.5123C6.12655 23.5123 6.447 23.4091 6.71857 23.2136L8.24478 22.1273C8.79334 22.4152 9.36907 22.6488 9.96108 22.8334L10.2652 24.6584C10.3956 25.435 11.0636 25.9999 11.8512 25.9999H14.1432C14.9308 25.9999 15.5988 25.435 15.7292 24.6584L16.0388 22.8334C16.6525 22.6433 17.2445 22.3989 17.8094 22.1002L19.3139 23.1756C19.5854 23.3711 19.9113 23.4743 20.248 23.4743C20.6771 23.4743 21.079 23.306 21.3832 23.0018L23.0017 21.3833C23.5557 20.8293 23.6318 19.9548 23.1755 19.3139L22.1001 17.804C22.3989 17.2337 22.6487 16.6417 22.8334 16.0334L24.6583 15.7292C25.435 15.5989 25.9998 14.9308 25.9998 14.1433V11.8567C26.0107 11.0691 25.4458 10.4011 24.6692 10.2707ZM24.5442 14.1433C24.5442 14.2139 24.4954 14.2736 24.4247 14.2845L22.1436 14.6647C21.8557 14.7136 21.6276 14.9254 21.557 15.2024C21.3506 16.0008 21.0356 16.7666 20.6119 17.4781C20.4653 17.728 20.4762 18.0375 20.6445 18.2765L21.9861 20.1666C22.0241 20.2209 22.0187 20.3024 21.9698 20.3513L20.3512 21.9698C20.3132 22.0079 20.2752 22.0133 20.248 22.0133C20.2155 22.0133 20.1883 22.0024 20.1666 21.9861L18.2819 20.6446C18.0484 20.4762 17.7333 20.4654 17.4835 20.612C16.772 21.0357 16.0062 21.3507 15.2078 21.5571C14.9253 21.6277 14.7135 21.8612 14.6701 22.1436L14.2844 24.4248C14.2736 24.4954 14.2138 24.5443 14.1432 24.5443H11.8566C11.786 24.5443 11.7263 24.4954 11.7154 24.4248L11.3352 22.1436C11.2863 21.8558 11.0745 21.6277 10.7975 21.5571C10.0208 21.3561 9.2713 21.0465 8.57066 20.6446C8.4566 20.5794 8.32625 20.5468 8.20133 20.5468C8.05468 20.5468 7.9026 20.5903 7.77768 20.6826L5.87671 22.035C5.84956 22.0513 5.8224 22.0622 5.79524 22.0622C5.77352 22.0622 5.73007 22.0567 5.69205 22.0187L4.07351 20.4002C4.02463 20.3513 4.01919 20.2753 4.05721 20.2155L5.39332 18.3417C5.5617 18.1027 5.57256 17.7877 5.42591 17.5379C5.00227 16.8318 4.67639 16.066 4.47 15.2676C4.39396 14.9906 4.16584 14.7787 3.88341 14.7299L1.58595 14.3388C1.51534 14.3279 1.46646 14.2682 1.46646 14.1976V11.911C1.46646 11.8404 1.51534 11.7806 1.58595 11.7698L3.85082 11.3896C4.13868 11.3407 4.37223 11.1289 4.44284 10.8465C4.6438 10.048 4.95338 9.27679 5.3716 8.56529C5.51824 8.31545 5.50195 8.00586 5.33358 7.77231L3.98117 5.87134C3.94316 5.81703 3.94859 5.73556 3.99747 5.68668L5.61601 4.06814C5.65403 4.03012 5.69205 4.02469 5.7192 4.02469C5.75179 4.02469 5.77895 4.03555 5.80067 4.05184L7.67449 5.38795C7.91347 5.55632 8.22849 5.56719 8.47833 5.42054C9.1844 4.9969 9.95022 4.67102 10.7486 4.46462C11.0256 4.38859 11.2374 4.16047 11.2863 3.87804L11.6774 1.58058C11.6882 1.50997 11.748 1.46109 11.8186 1.46109H14.1052C14.1758 1.46109 14.2355 1.50997 14.2464 1.58058L14.6266 3.84545C14.6755 4.13331 14.8873 4.36686 15.1697 4.43747C15.9899 4.64386 16.772 4.96431 17.4998 5.39338C17.7496 5.54003 18.0592 5.52917 18.2982 5.3608L20.172 4.01382C20.1992 3.99753 20.2263 3.98667 20.2535 3.98667C20.2752 3.98667 20.3187 3.9921 20.3567 4.03012L21.9752 5.64866C22.0241 5.69754 22.0295 5.77358 21.9915 5.83332L20.65 7.718C20.4816 7.95155 20.4707 8.26656 20.6174 8.51641C21.041 9.22791 21.356 9.99373 21.5624 10.7921C21.633 11.0746 21.8666 11.2864 22.149 11.3298L24.4302 11.7155C24.5008 11.7263 24.5497 11.7861 24.5497 11.8567V14.1433H24.5442Z" fill="#333333"/>
<path d="M13.0027 7.38667C9.9068 7.38667 7.39209 9.90138 7.39209 12.9972C7.39209 16.0931 9.9068 18.6078 13.0027 18.6078C16.0985 18.6078 18.6132 16.0931 18.6132 12.9972C18.6132 9.90138 16.0985 7.38667 13.0027 7.38667ZM13.0027 17.1414C10.7161 17.1414 8.85855 15.2838 8.85855 12.9972C8.85855 10.7107 10.7161 8.85314 13.0027 8.85314C15.2893 8.85314 17.1468 10.7107 17.1468 12.9972C17.1468 15.2838 15.2893 17.1414 13.0027 17.1414Z" fill="#333333"/>
</g>
<defs>
<clipPath id="clip0_10_144">
<rect width="26" height="26" fill="white"/>
</clipPath>
</defs>
</svg>
