<svg width="25" height="25" viewBox="0 0 25 25" fill="none" xmlns="http://www.w3.org/2000/svg">
<path d="M10.1562 10.9375V17.1875C10.1562 17.6195 10.5055 17.9688 10.9375 17.9688C11.3695 17.9688 11.7188 17.6195 11.7188 17.1875V10.9375C11.7188 10.5055 11.3695 10.1562 10.9375 10.1562C10.5055 10.1562 10.1562 10.5055 10.1562 10.9375Z" fill="#333333"/>
<path d="M13.2812 10.9375V17.1875C13.2812 17.6195 13.6305 17.9688 14.0625 17.9688C14.4945 17.9688 14.8438 17.6195 14.8438 17.1875V10.9375C14.8438 10.5055 14.4945 10.1562 14.0625 10.1562C13.6305 10.1562 13.2812 10.5055 13.2812 10.9375Z" fill="#333333"/>
<path d="M14.8438 2.34375H10.1562C9.29453 2.34375 8.59375 3.04453 8.59375 3.90625V5.46875H6.25H3.90625C3.47422 5.46875 3.125 5.81797 3.125 6.25C3.125 6.68203 3.47422 7.03125 3.90625 7.03125H5.46875V20.3125C5.46875 21.6047 6.52031 22.6562 7.8125 22.6562H17.1875C18.4797 22.6562 19.5312 21.6047 19.5312 20.3125V12.5C19.5312 12.068 19.182 11.7188 18.75 11.7188C18.318 11.7188 17.9688 12.068 17.9688 12.5V20.3125C17.9688 20.7437 17.6187 21.0938 17.1875 21.0938H7.8125C7.38125 21.0938 7.03125 20.7437 7.03125 20.3125V7.03125H17.9688L18 12.5C18 16.9062 18.318 13 18.75 13C19.182 13 19.5 12.932 19.5 12.5L19.5312 7.03125H21.0938C21.5258 7.03125 21.875 6.68203 21.875 6.25C21.875 5.81797 21.5258 5.46875 21.0938 5.46875H18.75H16.4062V3.90625C16.4062 3.04453 15.7055 2.34375 14.8438 2.34375ZM10.1562 5.46875V3.90625H14.8438V5.46875H10.1562Z" fill="#333333"/>
</svg>
