<svg width="100" height="100" viewBox="0 0 100 100" fill="none" xmlns="http://www.w3.org/2000/svg">
<path d="M94.4191 84.9213C94.4191 93.2483 87.6721 100 79.3483 100H20.6517C12.3279 100 5.58093 93.2483 5.58093 84.9213V15.0787C5.58093 6.7517 12.3279 0 20.6517 0H79.3483C87.6721 0 94.4191 6.7517 94.4191 15.0787V84.9213ZM89.6599 15.0787C89.6599 9.38035 85.0435 4.76236 79.3483 4.76236H20.6517C14.9565 4.76236 10.3401 9.38035 10.3401 15.0787V84.9213C10.3401 90.6196 14.9565 95.2392 20.6517 95.2392H79.3483C85.0435 95.2392 89.6599 90.6196 89.6599 84.9213V15.0787Z" fill="#333333"/>
<path d="M49.2067 50C47.8932 50 46.8271 48.9339 46.8271 47.6188V22.2222C46.8271 20.9071 47.8932 19.841 49.2067 19.841C50.5203 19.841 51.5863 20.9071 51.5863 22.2222V47.6188C51.5863 48.9339 50.5203 50 49.2067 50Z" fill="#333333"/>
<path d="M60.4274 38.0957H38.2178C36.9043 38.0957 35.8383 37.028 35.8383 35.7145C35.8383 34.3994 36.9043 33.3333 38.2178 33.3333H60.4274C61.7409 33.3333 62.807 34.3994 62.807 35.7145C62.807 37.028 61.7409 38.0957 60.4274 38.0957Z" fill="#333333"/>
<path d="M74.705 65.0803H27.1131C25.7996 65.0803 24.7335 64.0126 24.7335 62.6991C24.7335 61.384 25.7996 60.3179 27.1131 60.3179H74.705C76.0185 60.3179 77.0846 61.384 77.0846 62.6991C77.0846 64.0126 76.0185 65.0803 74.705 65.0803Z" fill="#333333"/>
<path d="M74.705 76.1914H27.1131C25.7996 76.1914 24.7335 75.1237 24.7335 73.8102C24.7335 72.4951 25.7996 71.429 27.1131 71.429H74.705C76.0185 71.429 77.0846 72.4951 77.0846 73.8102C77.0846 75.1237 76.0185 76.1914 74.705 76.1914Z" fill="#333333"/>
<path d="M74.705 87.3025H27.1131C25.7996 87.3025 24.7335 86.2349 24.7335 84.9213C24.7335 83.6062 25.7996 82.5401 27.1131 82.5401H74.705C76.0185 82.5401 77.0846 83.6062 77.0846 84.9213C77.0846 86.2349 76.0185 87.3025 74.705 87.3025Z" fill="#333333"/>
</svg>
