<svg width="20" height="20" viewBox="0 0 20 20" fill="none" xmlns="http://www.w3.org/2000/svg">
<path d="M17.0747 17.0747C20.9751 13.1742 20.9751 6.82579 17.0747 2.92534C13.1742 -0.975112 6.82579 -0.975112 2.92534 2.92534C-0.975112 6.82579 -0.975112 13.1742 2.92534 17.0747C6.82579 20.9751 13.1742 20.9751 17.0747 17.0747ZM3.63117 3.63117C7.14402 0.118319 12.856 0.118319 16.3688 3.63117C19.8817 7.14402 19.8817 12.856 16.3688 16.3688C12.856 19.8817 7.14402 19.8817 3.63117 16.3688C0.118319 12.856 0.122399 7.14402 3.63117 3.63117Z" fill="#333333"/>
<path d="M9.99995 13.7454C10.1387 13.7454 10.2611 13.6883 10.3549 13.5985C10.4447 13.5088 10.5018 13.3823 10.5018 13.2436V10.4978H13.2476C13.3863 10.4978 13.5087 10.4406 13.6026 10.3509C13.6923 10.2611 13.7494 10.1346 13.7494 9.99592C13.7494 9.71848 13.525 9.49408 13.2517 9.49816H10.5059V6.75234C10.5059 6.4749 10.2815 6.25051 10.0081 6.25459C9.73067 6.25459 9.50627 6.47898 9.51035 6.75234V9.49816H6.76453C6.4871 9.49816 6.2627 9.72256 6.26678 9.99592C6.26678 10.2734 6.49118 10.4978 6.76453 10.4937H9.51035V13.2395C9.49811 13.521 9.72251 13.7454 9.99995 13.7454Z" fill="#333333"/>
</svg>
