<svg width="22" height="22" viewBox="0 0 22 22" fill="none" xmlns="http://www.w3.org/2000/svg">
<path d="M20.9302 1.07221C19.5005 -0.357317 17.1864 -0.357489 15.7565 1.07221L2.23212 14.5949C2.14197 14.6851 2.06738 14.8023 2.02454 14.9308L0.0453965 20.8676C-0.178041 21.5378 0.461291 22.1783 1.13242 21.9545L7.06993 19.9756C7.19548 19.9338 7.31334 19.8606 7.4059 19.768L20.9302 6.2453C22.3566 4.81908 22.3566 2.49843 20.9302 1.07221ZM2.21949 19.7807L3.21537 16.7933L5.20723 18.7849L2.21949 19.7807ZM6.79824 17.9452L4.05524 15.2025L15.5396 3.71956L18.2826 6.46225L6.79824 17.9452ZM19.7148 5.0301L19.4979 5.24705L16.7549 2.50436L16.9718 2.28745C17.7282 1.53133 18.9586 1.53133 19.7148 2.28745C20.4711 3.04357 20.4711 4.27394 19.7148 5.0301Z" fill="#333333"/>
</svg>
